<?xml version="1.0" encoding="utf-8"?>
<!-- Generator: Adobe Illustrator 25.2.3, SVG Export Plug-In . SVG Version: 6.00 Build 0)  -->
<svg version="1.1" id="Layer_1" xmlns="http://www.w3.org/2000/svg" xmlns:xlink="http://www.w3.org/1999/xlink" x="0px" y="0px"
	 viewBox="0 0 330.74 57.12" style="enable-background:new 0 0 330.74 57.12;" xml:space="preserve">
<style type="text/css">
	.st0{fill:#252833;}
	.st1{fill:#34ADD2;}
</style>
<g>
	<g>
		<path class="st0" d="M-0.05,7.09C-0.05,2.92,3.08,0,7.31,0c4.37,0,7.42,2.92,7.42,7.09s-3.05,7.15-7.42,7.15
			C3.08,14.23-0.05,11.25-0.05,7.09z M0.85,18.12h12.97v35.81H0.85V18.12z"/>
		<path class="st0" d="M17.71,18.12h12.97v5.28h0.69c2.84-4.16,5.82-6.1,10.07-6.1c7.42,0,12.64,6.03,12.64,14.3v22.35H41.12V34.04
			c0-3.47-1.93-5.82-5-5.82c-3.05,0-5.4,2.5-5.4,6.03v19.7H17.73V18.12H17.71z"/>
		<path class="st0" d="M59.76,41.02V27.35h-4.58v-9.23h5.07L62.6,6.96h10.2v11.16h7.49v9.23H72.8v13.04c0,2.78,1.66,4.65,4.23,4.65
			c0.97,0,2.35-0.21,3.47-0.48v9.02c-2.29,0.84-5.61,1.24-7.84,1.24C64.83,54.83,59.76,49.28,59.76,41.02z"/>
		<path class="st0" d="M80.77,35.89c0-11.37,8.33-18.67,20.18-18.67c11.8,0,19.57,7.36,19.57,18.8c0,1.05-0.06,2.84-0.21,3.53H94.16
			c0.84,3.89,3.47,6.31,7.36,6.31c3.13,0,5.34-1.6,6.45-3.89l11.16,2.02c-1.81,6.73-9.17,10.83-18.31,10.83
			C88.97,54.83,80.77,47.41,80.77,35.89z M107.43,32.63c-0.36-3.53-3.05-6.45-6.73-6.45c-3.62,0-5.97,2.5-6.67,6.45H107.43z"/>
		<path class="st0" d="M122.69,18.12h12.91v5.07h0.76c1.53-3.53,4.71-5.76,8.33-5.76c1.39,0,2.84,0.36,3.95,0.9v11.52
			c-2.08-0.9-4.58-1.45-6.24-1.45c-3.95,0-6.73,3.13-6.73,7.78v17.77h-12.97L122.69,18.12L122.69,18.12z"/>
	</g>
	<g>
		<path class="st0" d="M210.45,35.89c0-11.37,8.33-18.67,20.18-18.67c11.8,0,19.57,7.36,19.57,18.8c0,1.05-0.06,2.84-0.21,3.53
			h-26.16c0.84,3.89,3.47,6.31,7.36,6.31c3.13,0,5.34-1.6,6.45-3.89l11.16,2.02c-1.81,6.73-9.17,10.83-18.31,10.83
			C218.63,54.83,210.45,47.41,210.45,35.89z M237.09,32.63c-0.36-3.53-3.05-6.45-6.73-6.45c-3.62,0-5.97,2.5-6.67,6.45H237.09z"/>
		<path class="st0" d="M248.61,18.12h13.33l5.7,22.69h0.69l5.61-22.69h11.8l6.24,23.04h0.69l5.61-23.04h12.91l-10.13,35.81h-16.5
			l-4.31-20.54h-0.69l-4.37,20.54H258.6L248.61,18.12z"/>
	</g>
	<polygon class="st1" points="196.89,18.12 192.31,44.99 199.54,55.72 206.8,45.16 202.21,18.12 	"/>
	<polygon class="st1" points="197.59,14.09 201.24,14.09 206.8,4.98 203.68,0.02 195.08,0.04 191.99,5 	"/>
	<g>
		<path class="st0" d="M320.99,4.44v1.14h-2.19v5.72h-1.37V5.57h-2.19V4.44H320.99z M328.39,11.31l-0.25-4.04
			c-0.02-0.53-0.02-1.18-0.04-1.91h-0.08c-0.17,0.61-0.38,1.41-0.59,2.04l-1.24,3.81h-1.41l-1.24-3.91
			c-0.13-0.53-0.34-1.35-0.48-1.93h-0.08c0,0.63-0.02,1.28-0.04,1.91l-0.25,4.04h-1.3l0.5-6.85h2.04l1.18,3.36
			c0.15,0.53,0.27,1.03,0.46,1.75h0.02c0.17-0.63,0.34-1.22,0.48-1.72l1.18-3.39h1.98l0.53,6.85H328.39z"/>
	</g>
	<g>
		<path class="st0" d="M149.82,18.12h13.75l7.15,25.06h0.69l7.15-25.06h13.81l-11.8,35.81h-18.96L149.82,18.12z"/>
	</g>
</g>
</svg>
